<?xml version="1.0" encoding="UTF-8" standalone="no"?>
<!DOCTYPE svg PUBLIC "-//W3C//DTD SVG 1.1//EN"
 "http://www.w3.org/Graphics/SVG/1.1/DTD/svg11.dtd">
<!-- Generated by graphviz version 12.2.1 (20241206.2353)
 -->
<!-- Title: G Pages: 1 -->
<svg width="1125pt" height="1108pt"
 viewBox="0.00 0.00 1125.00 1107.82" xmlns="http://www.w3.org/2000/svg" xmlns:xlink="http://www.w3.org/1999/xlink">
<g id="graph0" class="graph" transform="scale(1 1) rotate(0) translate(4 1103.82)">
<title>G</title>
<polygon fill="white" stroke="none" points="-4,4 -4,-1103.82 1121,-1103.82 1121,4 -4,4"/>
<text text-anchor="middle" x="558.5" y="-1073.02" font-family="Arial, sans-serif" font-size="24.00">Salesforce System ERD</text>
<!-- Employee__c -->
<g id="node1" class="node">
<title>Employee__c</title>
<polygon fill="#fff9c4" stroke="black" points="458.95,-277.2 458.95,-535.05 636.85,-535.05 636.85,-277.2 458.95,-277.2"/>
<text text-anchor="middle" x="547.9" y="-516.45" font-family="Arial, sans-serif" font-size="12.00">*Employee*</text>
<polyline fill="none" stroke="black" points="458.95,-506.4 636.85,-506.4"/>
<text text-anchor="middle" x="547.9" y="-487.8" font-family="Arial, sans-serif" font-size="12.00">*Hire_Date__c* : Date</text>
<polyline fill="none" stroke="black" points="458.95,-477.75 636.85,-477.75"/>
<text text-anchor="middle" x="547.9" y="-459.15" font-family="Arial, sans-serif" font-size="12.00">Shift_Assignment__c : Picklist</text>
<polyline fill="none" stroke="black" points="458.95,-449.1 636.85,-449.1"/>
<text text-anchor="middle" x="547.9" y="-430.5" font-family="Arial, sans-serif" font-size="12.00">Employee_Email__c : Email</text>
<polyline fill="none" stroke="black" points="458.95,-420.45 636.85,-420.45"/>
<text text-anchor="middle" x="547.9" y="-401.85" font-family="Arial, sans-serif" font-size="12.00">Employee_Score__c : Number</text>
<polyline fill="none" stroke="black" points="458.95,-391.8 636.85,-391.8"/>
<text text-anchor="middle" x="547.9" y="-373.2" font-family="Arial, sans-serif" font-size="12.00">*First_Name__c* : Text</text>
<polyline fill="none" stroke="black" points="458.95,-363.15 636.85,-363.15"/>
<text text-anchor="middle" x="547.9" y="-344.55" font-family="Arial, sans-serif" font-size="12.00">Terminated_Date__c : Date</text>
<polyline fill="none" stroke="black" points="458.95,-334.5 636.85,-334.5"/>
<text text-anchor="middle" x="547.9" y="-315.9" font-family="Arial, sans-serif" font-size="12.00">Department__c : Lookup</text>
<polyline fill="none" stroke="black" points="458.95,-305.85 636.85,-305.85"/>
<text text-anchor="middle" x="547.9" y="-287.25" font-family="Arial, sans-serif" font-size="12.00">*Last_Name__c* : Text</text>
</g>
<!-- Department__c -->
<g id="node3" class="node">
<title>Department__c</title>
<polygon fill="#fff9c4" stroke="black" points="890.35,-423.5 890.35,-566.75 1117,-566.75 1117,-423.5 890.35,-423.5"/>
<text text-anchor="middle" x="1003.67" y="-548.15" font-family="Arial, sans-serif" font-size="12.00">*Department*</text>
<polyline fill="none" stroke="black" points="890.35,-538.1 1117,-538.1"/>
<text text-anchor="middle" x="1003.67" y="-519.5" font-family="Arial, sans-serif" font-size="12.00">Department_Name__c : Text</text>
<polyline fill="none" stroke="black" points="890.35,-509.45 1117,-509.45"/>
<text text-anchor="middle" x="1003.67" y="-490.85" font-family="Arial, sans-serif" font-size="12.00">Date_Decommissioned__c : Date</text>
<polyline fill="none" stroke="black" points="890.35,-480.8 1117,-480.8"/>
<text text-anchor="middle" x="1003.67" y="-462.2" font-family="Arial, sans-serif" font-size="12.00">Date_Enabled__c : Date</text>
<polyline fill="none" stroke="black" points="890.35,-452.15 1117,-452.15"/>
<text text-anchor="middle" x="1003.67" y="-433.55" font-family="Arial, sans-serif" font-size="12.00">Department_Manager__c : MasterDetail</text>
</g>
<!-- Employee__c&#45;&gt;Department__c -->
<g id="edge4" class="edge">
<title>Employee__c&#45;&gt;Department__c</title>
<path fill="none" stroke="gray" stroke-width="1.5" d="M652.79,-498.03C652.79,-498.03 889.96,-498.03 889.96,-498.03"/>
<polygon fill="gray" stroke="gray" stroke-width="1.5" points="652.63,-498.03 637.63,-491.28 644.63,-498.03 638.13,-498.03 638.13,-498.03 638.13,-498.03 644.63,-498.03 637.63,-504.78 652.63,-498.03"/>
<text text-anchor="middle" x="763.6" y="-497.62" font-family="Arial, sans-serif" font-size="10.00">Department__c</text>
</g>
<!-- Violation__c -->
<g id="node2" class="node">
<title>Violation__c</title>
<polygon fill="#fff9c4" stroke="black" points="17.8,-216.88 17.8,-503.38 255.7,-503.38 255.7,-216.88 17.8,-216.88"/>
<text text-anchor="middle" x="136.75" y="-484.78" font-family="Arial, sans-serif" font-size="12.00">*Violation*</text>
<polyline fill="none" stroke="black" points="17.8,-474.73 255.7,-474.73"/>
<text text-anchor="middle" x="136.75" y="-456.12" font-family="Arial, sans-serif" font-size="12.00">Expiration_Date__c : Date</text>
<polyline fill="none" stroke="black" points="17.8,-446.07 255.7,-446.07"/>
<text text-anchor="middle" x="136.75" y="-427.48" font-family="Arial, sans-serif" font-size="12.00">Approved__c : Checkbox</text>
<polyline fill="none" stroke="black" points="17.8,-417.43 255.7,-417.43"/>
<text text-anchor="middle" x="136.75" y="-398.83" font-family="Arial, sans-serif" font-size="12.00">Violation_Type__c : Picklist</text>
<polyline fill="none" stroke="black" points="17.8,-388.77 255.7,-388.77"/>
<text text-anchor="middle" x="136.75" y="-370.18" font-family="Arial, sans-serif" font-size="12.00">*Violation_Date__c* : Date</text>
<polyline fill="none" stroke="black" points="17.8,-360.12 255.7,-360.12"/>
<text text-anchor="middle" x="136.75" y="-341.53" font-family="Arial, sans-serif" font-size="12.00">Violation_Stage__c : Picklist</text>
<polyline fill="none" stroke="black" points="17.8,-331.48 255.7,-331.48"/>
<text text-anchor="middle" x="136.75" y="-312.88" font-family="Arial, sans-serif" font-size="12.00">Related_Violation__c : Lookup</text>
<polyline fill="none" stroke="black" points="17.8,-302.82 255.7,-302.82"/>
<text text-anchor="middle" x="136.75" y="-284.23" font-family="Arial, sans-serif" font-size="12.00">Employee__c : MasterDetail</text>
<polyline fill="none" stroke="black" points="17.8,-274.18 255.7,-274.18"/>
<text text-anchor="middle" x="136.75" y="-255.58" font-family="Arial, sans-serif" font-size="12.00">Initial_Review_Completed__c : Checkbox</text>
<polyline fill="none" stroke="black" points="17.8,-245.53 255.7,-245.53"/>
<text text-anchor="middle" x="136.75" y="-226.92" font-family="Arial, sans-serif" font-size="12.00">Drawloop_Next__c : Text</text>
</g>
<!-- Violation__c&#45;&gt;Employee__c -->
<g id="edge3" class="edge">
<title>Violation__c&#45;&gt;Employee__c</title>
<path fill="none" stroke="steelblue" stroke-width="2" d="M255.95,-390.29C255.95,-390.29 442.88,-390.29 442.88,-390.29"/>
<polygon fill="steelblue" stroke="steelblue" stroke-width="2" points="443.09,-390.29 458.09,-397.04 451.26,-390.29 457.42,-390.29 457.42,-390.29 457.42,-390.29 451.26,-390.29 458.09,-383.54 443.09,-390.29"/>
<text text-anchor="middle" x="357.33" y="-385.62" font-family="Arial, sans-serif" font-size="10.00">Employee__c</text>
</g>
<!-- Violation__c&#45;&gt;Violation__c -->
<g id="edge2" class="edge">
<title>Violation__c&#45;&gt;Violation__c</title>
<path fill="none" stroke="gray" stroke-width="1.5" d="M1.73,-360.12C1.73,-360.12 0,-360.12 0,-360.12 0,-360.12 0,-180.31 0,-180.31 0,-180.31 357,-180.31 357,-180.31 357,-180.31 357,-246.54 357,-246.54 357,-246.54 307.8,-246.54 255.9,-246.54"/>
<polygon fill="gray" stroke="gray" stroke-width="1.5" points="1.82,-360.13 16.82,-366.88 9.82,-360.13 16.32,-360.13 16.32,-360.13 16.32,-360.13 9.82,-360.13 16.82,-353.38 1.82,-360.13"/>
</g>
<!-- Department__c&#45;&gt;Employee__c -->
<g id="edge5" class="edge">
<title>Department__c&#45;&gt;Employee__c</title>
<path fill="none" stroke="steelblue" stroke-width="2" d="M890.13,-460.52C890.13,-460.52 653.09,-460.52 653.09,-460.52"/>
<polygon fill="steelblue" stroke="steelblue" stroke-width="2" points="652.87,-460.52 637.87,-453.77 644.7,-460.52 638.54,-460.52 638.54,-460.52 638.54,-460.52 644.7,-460.52 637.87,-467.27 652.87,-460.52"/>
<text text-anchor="middle" x="763.6" y="-408.62" font-family="Arial, sans-serif" font-size="10.00">Department_Manager__c</text>
</g>
<!-- Quality_Assurance__c -->
<g id="node4" class="node">
<title>Quality_Assurance__c</title>
<polygon fill="#fff9c4" stroke="black" points="33.17,-605.93 33.17,-1064.32 240.32,-1064.32 240.32,-605.93 33.17,-605.93"/>
<text text-anchor="middle" x="136.75" y="-1045.72" font-family="Arial, sans-serif" font-size="12.00">*Quality Assurance*</text>
<polyline fill="none" stroke="black" points="33.17,-1035.67 240.32,-1035.67"/>
<text text-anchor="middle" x="136.75" y="-1017.07" font-family="Arial, sans-serif" font-size="12.00">Department_Name_del__c : Lookup</text>
<polyline fill="none" stroke="black" points="33.17,-1007.02 240.32,-1007.02"/>
<text text-anchor="middle" x="136.75" y="-988.42" font-family="Arial, sans-serif" font-size="12.00">QA_Results__c : Number</text>
<polyline fill="none" stroke="black" points="33.17,-978.37 240.32,-978.37"/>
<text text-anchor="middle" x="136.75" y="-959.77" font-family="Arial, sans-serif" font-size="12.00">User__c : Lookup</text>
<polyline fill="none" stroke="black" points="33.17,-949.72 240.32,-949.72"/>
<text text-anchor="middle" x="136.75" y="-931.12" font-family="Arial, sans-serif" font-size="12.00">QA1_5__c : Checkbox</text>
<polyline fill="none" stroke="black" points="33.17,-921.07 240.32,-921.07"/>
<text text-anchor="middle" x="136.75" y="-902.47" font-family="Arial, sans-serif" font-size="12.00">*Date_Compiled__c* : Date</text>
<polyline fill="none" stroke="black" points="33.17,-892.42 240.32,-892.42"/>
<text text-anchor="middle" x="136.75" y="-873.82" font-family="Arial, sans-serif" font-size="12.00">QA2_1__c : Checkbox</text>
<polyline fill="none" stroke="black" points="33.17,-863.77 240.32,-863.77"/>
<text text-anchor="middle" x="136.75" y="-845.17" font-family="Arial, sans-serif" font-size="12.00">QA1_4__c : Checkbox</text>
<polyline fill="none" stroke="black" points="33.17,-835.12 240.32,-835.12"/>
<text text-anchor="middle" x="136.75" y="-816.52" font-family="Arial, sans-serif" font-size="12.00">QA3_1__c : Checkbox</text>
<polyline fill="none" stroke="black" points="33.17,-806.47 240.32,-806.47"/>
<text text-anchor="middle" x="136.75" y="-787.87" font-family="Arial, sans-serif" font-size="12.00">QA2_4__c : Checkbox</text>
<polyline fill="none" stroke="black" points="33.17,-777.82 240.32,-777.82"/>
<text text-anchor="middle" x="136.75" y="-759.22" font-family="Arial, sans-serif" font-size="12.00">QA1_1__c : Checkbox</text>
<polyline fill="none" stroke="black" points="33.17,-749.17 240.32,-749.17"/>
<text text-anchor="middle" x="136.75" y="-730.57" font-family="Arial, sans-serif" font-size="12.00">Employee__c : MasterDetail</text>
<polyline fill="none" stroke="black" points="33.17,-720.52 240.32,-720.52"/>
<text text-anchor="middle" x="136.75" y="-701.92" font-family="Arial, sans-serif" font-size="12.00">QA2_2__c : Checkbox</text>
<polyline fill="none" stroke="black" points="33.17,-691.87 240.32,-691.87"/>
<text text-anchor="middle" x="136.75" y="-673.27" font-family="Arial, sans-serif" font-size="12.00">QA1_2__c : Checkbox</text>
<polyline fill="none" stroke="black" points="33.17,-663.22 240.32,-663.22"/>
<text text-anchor="middle" x="136.75" y="-644.62" font-family="Arial, sans-serif" font-size="12.00">QA2_3__c : Checkbox</text>
<polyline fill="none" stroke="black" points="33.17,-634.57 240.32,-634.57"/>
<text text-anchor="middle" x="136.75" y="-615.97" font-family="Arial, sans-serif" font-size="12.00">QA1_3__c : Checkbox</text>
</g>
<!-- Quality_Assurance__c&#45;&gt;Employee__c -->
<g id="edge8" class="edge">
<title>Quality_Assurance__c&#45;&gt;Employee__c</title>
<path fill="none" stroke="steelblue" stroke-width="2" d="M240.35,-629.53C344.58,-629.53 490,-629.53 490,-629.53 490,-629.53 490,-551.31 490,-551.31"/>
<polygon fill="steelblue" stroke="steelblue" stroke-width="2" points="490,-551.1 496.75,-536.1 490,-542.93 490,-536.77 490,-536.77 490,-536.77 490,-542.93 483.25,-536.1 490,-551.1"/>
<text text-anchor="middle" x="357.33" y="-518.62" font-family="Arial, sans-serif" font-size="10.00">Employee__c</text>
</g>
<!-- Quality_Assurance__c&#45;&gt;Department__c -->
<g id="edge6" class="edge">
<title>Quality_Assurance__c&#45;&gt;Department__c</title>
<path fill="none" stroke="gray" stroke-width="1.5" d="M137,-589.77C137,-589.77 137,-551.4 137,-551.4 137,-551.4 654.8,-551.4 889.93,-551.4"/>
<polygon fill="gray" stroke="gray" stroke-width="1.5" points="137,-589.93 130.25,-604.93 137,-597.93 137,-604.43 137,-604.43 137,-604.43 137,-597.93 143.75,-604.93 137,-589.93"/>
<text text-anchor="middle" x="547.9" y="-837.62" font-family="Arial, sans-serif" font-size="10.00">Department_Name_del__c</text>
</g>
<!-- User -->
<g id="node6" class="node">
<title>User</title>
<polygon fill="lightgrey" stroke="black" points="520.9,-654.12 520.9,-690.12 574.9,-690.12 574.9,-654.12 520.9,-654.12"/>
<text text-anchor="middle" x="547.9" y="-668.02" font-family="Arial, sans-serif" font-size="12.00">User</text>
</g>
<!-- Quality_Assurance__c&#45;&gt;User -->
<g id="edge7" class="edge">
<title>Quality_Assurance__c&#45;&gt;User</title>
<path fill="none" stroke="gray" stroke-width="1.5" d="M256.43,-672.12C256.43,-672.12 520.56,-672.12 520.56,-672.12"/>
<polygon fill="gray" stroke="gray" stroke-width="1.5" points="256.27,-672.13 241.27,-665.38 248.27,-672.13 241.77,-672.13 241.77,-672.13 241.77,-672.13 248.27,-672.13 241.27,-678.88 256.27,-672.13"/>
<text text-anchor="middle" x="357.33" y="-674.62" font-family="Arial, sans-serif" font-size="10.00">User__c</text>
</g>
<!-- Timeclock__c -->
<g id="node5" class="node">
<title>Timeclock__c</title>
<polygon fill="#fff9c4" stroke="black" points="56.8,-0.5 56.8,-143.75 216.7,-143.75 216.7,-0.5 56.8,-0.5"/>
<text text-anchor="middle" x="136.75" y="-125.15" font-family="Arial, sans-serif" font-size="12.00">*Timeclock*</text>
<polyline fill="none" stroke="black" points="56.8,-115.1 216.7,-115.1"/>
<text text-anchor="middle" x="136.75" y="-96.5" font-family="Arial, sans-serif" font-size="12.00">Clock_In__c : DateTime</text>
<polyline fill="none" stroke="black" points="56.8,-86.45 216.7,-86.45"/>
<text text-anchor="middle" x="136.75" y="-67.85" font-family="Arial, sans-serif" font-size="12.00">Employee__c : Lookup</text>
<polyline fill="none" stroke="black" points="56.8,-57.8 216.7,-57.8"/>
<text text-anchor="middle" x="136.75" y="-39.2" font-family="Arial, sans-serif" font-size="12.00">Time_Worked__c : Number</text>
<polyline fill="none" stroke="black" points="56.8,-29.15 216.7,-29.15"/>
<text text-anchor="middle" x="136.75" y="-10.55" font-family="Arial, sans-serif" font-size="12.00">Clock_Out__c : DateTime</text>
</g>
<!-- Timeclock__c&#45;&gt;Employee__c -->
<g id="edge1" class="edge">
<title>Timeclock__c&#45;&gt;Employee__c</title>
<path fill="none" stroke="gray" stroke-width="1.5" d="M232.68,-72.12C232.68,-72.12 548,-72.12 548,-72.12 548,-72.12 548,-183 548,-276.99"/>
<polygon fill="gray" stroke="gray" stroke-width="1.5" points="232.52,-72.13 217.52,-65.38 224.52,-72.13 218.02,-72.13 218.02,-72.13 218.02,-72.13 224.52,-72.13 217.52,-78.88 232.52,-72.13"/>
<text text-anchor="middle" x="357.33" y="-74.62" font-family="Arial, sans-serif" font-size="10.00">Employee__c</text>
</g>
</g>
</svg>
