<?xml version="1.0" encoding="UTF-8" standalone="no"?>
<!DOCTYPE svg PUBLIC "-//W3C//DTD SVG 1.1//EN"
 "http://www.w3.org/Graphics/SVG/1.1/DTD/svg11.dtd">
<!-- Generated by graphviz version 12.2.1 (20241206.2353)
 -->
<!-- Title: G Pages: 1 -->
<svg width="875pt" height="534pt"
 viewBox="0.00 0.00 874.70 533.98" xmlns="http://www.w3.org/2000/svg" xmlns:xlink="http://www.w3.org/1999/xlink">
<g id="graph0" class="graph" transform="scale(1 1) rotate(0) translate(4 529.98)">
<title>G</title>
<polygon fill="white" stroke="none" points="-4,4 -4,-529.98 870.7,-529.98 870.7,4 -4,4"/>
<text text-anchor="middle" x="433.35" y="-499.18" font-family="Arial, sans-serif" font-size="24.00">Salesforce System ERD</text>
<!-- Employee__c -->
<g id="node1" class="node">
<title>Employee__c</title>
<polygon fill="#fff9c4" stroke="black" points="351.15,-255.85 351.15,-313.15 496.05,-313.15 496.05,-255.85 351.15,-255.85"/>
<text text-anchor="middle" x="423.6" y="-294.55" font-family="Arial, sans-serif" font-size="12.00">*Employee*</text>
<polyline fill="none" stroke="black" points="351.15,-284.5 496.05,-284.5"/>
<text text-anchor="middle" x="423.6" y="-265.9" font-family="Arial, sans-serif" font-size="12.00">Department__c : Lookup</text>
</g>
<!-- Department__c -->
<g id="node3" class="node">
<title>Department__c</title>
<polygon fill="#fff9c4" stroke="black" points="640.05,-255.85 640.05,-313.15 866.7,-313.15 866.7,-255.85 640.05,-255.85"/>
<text text-anchor="middle" x="753.38" y="-294.55" font-family="Arial, sans-serif" font-size="12.00">*Department*</text>
<polyline fill="none" stroke="black" points="640.05,-284.5 866.7,-284.5"/>
<text text-anchor="middle" x="753.38" y="-265.9" font-family="Arial, sans-serif" font-size="12.00">Department_Manager__c : MasterDetail</text>
</g>
<!-- Employee__c&#45;&gt;Department__c -->
<g id="edge4" class="edge">
<title>Employee__c:Department__c&#45;&gt;Department__c</title>
<path fill="none" stroke="gray" stroke-width="1.5" d="M496.38,-274.78C496.38,-274.78 627.81,-274.78 627.81,-274.78"/>
<polygon fill="gray" stroke="gray" stroke-width="1.5" points="637.81,-274.78 627.81,-279.28 634.63,-275.03 627.81,-275.03 627.81,-274.78 627.81,-274.53 634.63,-274.53 627.81,-270.28 637.81,-274.78"/>
</g>
<!-- Violation__c -->
<g id="node2" class="node">
<title>Violation__c</title>
<polygon fill="#fff9c4" stroke="black" points="14.63,-386.52 14.63,-472.48 192.53,-472.48 192.53,-386.52 14.63,-386.52"/>
<text text-anchor="middle" x="103.58" y="-453.88" font-family="Arial, sans-serif" font-size="12.00">*Violation*</text>
<polyline fill="none" stroke="black" points="14.63,-443.82 192.53,-443.82"/>
<text text-anchor="middle" x="103.58" y="-425.23" font-family="Arial, sans-serif" font-size="12.00">Related_Violation__c : Lookup</text>
<polyline fill="none" stroke="black" points="14.63,-415.18 192.53,-415.18"/>
<text text-anchor="middle" x="103.58" y="-396.58" font-family="Arial, sans-serif" font-size="12.00">Employee__c : MasterDetail</text>
</g>
<!-- Violation__c&#45;&gt;Employee__c -->
<g id="edge3" class="edge">
<title>Violation__c:Employee__c&#45;&gt;Employee__c</title>
<path fill="none" stroke="steelblue" stroke-width="2" d="M182.7,-386.07C182.7,-348.13 182.7,-299.07 182.7,-299.07 182.7,-299.07 340.67,-299.07 340.67,-299.07"/>
<ellipse fill="steelblue" stroke="steelblue" stroke-width="2" cx="345.67" cy="-299.08" rx="4" ry="4"/>
</g>
<!-- Violation__c&#45;&gt;Violation__c -->
<g id="edge2" class="edge">
<title>Violation__c:Related_Violation__c&#45;&gt;Violation__c</title>
<path fill="none" stroke="gray" stroke-width="1.5" d="M14.29,-429.5C10.16,-429.5 7.7,-429.5 7.7,-429.5 7.7,-429.5 7.7,-490.98 7.7,-490.98 7.7,-490.98 202.7,-490.98 202.7,-490.98 202.7,-490.98 202.7,-429.5 202.7,-429.5 202.7,-429.5 201.71,-429.5 201.71,-429.5"/>
<polygon fill="gray" stroke="gray" stroke-width="1.5" points="194.66,-429.5 204.66,-425 197.83,-429.25 204.66,-429.25 204.66,-429.5 204.66,-429.75 197.83,-429.75 204.66,-434 194.66,-429.5"/>
</g>
<!-- Department__c&#45;&gt;Employee__c -->
<g id="edge5" class="edge">
<title>Department__c:Department_Manager__c&#45;&gt;Employee__c</title>
<path fill="none" stroke="steelblue" stroke-width="2" d="M639.89,-294.22C639.89,-294.22 506.46,-294.22 506.46,-294.22"/>
<ellipse fill="steelblue" stroke="steelblue" stroke-width="2" cx="501.46" cy="-294.22" rx="4" ry="4"/>
</g>
<!-- Quality_Assurance__c -->
<g id="node4" class="node">
<title>Quality_Assurance__c</title>
<polygon fill="#fff9c4" stroke="black" points="0,-68.2 0,-182.8 207.15,-182.8 207.15,-68.2 0,-68.2"/>
<text text-anchor="middle" x="103.58" y="-164.2" font-family="Arial, sans-serif" font-size="12.00">*Quality Assurance*</text>
<polyline fill="none" stroke="black" points="0,-154.15 207.15,-154.15"/>
<text text-anchor="middle" x="103.58" y="-135.55" font-family="Arial, sans-serif" font-size="12.00">Department_Name_del__c : Lookup</text>
<polyline fill="none" stroke="black" points="0,-125.5 207.15,-125.5"/>
<text text-anchor="middle" x="103.58" y="-106.9" font-family="Arial, sans-serif" font-size="12.00">User__c : Lookup</text>
<polyline fill="none" stroke="black" points="0,-96.85 207.15,-96.85"/>
<text text-anchor="middle" x="103.58" y="-78.25" font-family="Arial, sans-serif" font-size="12.00">Employee__c : MasterDetail</text>
</g>
<!-- Quality_Assurance__c&#45;&gt;Employee__c -->
<g id="edge8" class="edge">
<title>Quality_Assurance__c:Employee__c&#45;&gt;Employee__c</title>
<path fill="none" stroke="steelblue" stroke-width="2" d="M197.7,-183C197.7,-223.27 197.7,-269.93 197.7,-269.93 197.7,-269.93 340.88,-269.93 340.88,-269.93"/>
<ellipse fill="steelblue" stroke="steelblue" stroke-width="2" cx="345.88" cy="-269.93" rx="4" ry="4"/>
</g>
<!-- Quality_Assurance__c&#45;&gt;Department__c -->
<g id="edge6" class="edge">
<title>Quality_Assurance__c:Department_Name_del__c&#45;&gt;Department__c</title>
<path fill="none" stroke="gray" stroke-width="1.5" d="M207.31,-144.77C390.86,-144.77 753.7,-144.77 753.7,-144.77 753.7,-144.77 753.7,-243.72 753.7,-243.72"/>
<polygon fill="gray" stroke="gray" stroke-width="1.5" points="753.7,-253.72 749.2,-243.72 753.45,-250.55 753.45,-243.72 753.7,-243.72 753.95,-243.72 753.95,-250.55 758.2,-243.72 753.7,-253.72"/>
</g>
<!-- User -->
<g id="node6" class="node">
<title>User</title>
<polygon fill="lightgrey" stroke="black" points="396.6,-0.5 396.6,-36.5 450.6,-36.5 450.6,-0.5 396.6,-0.5"/>
<text text-anchor="middle" x="423.6" y="-14.4" font-family="Arial, sans-serif" font-size="12.00">User</text>
</g>
<!-- Quality_Assurance__c&#45;&gt;User -->
<g id="edge7" class="edge">
<title>Quality_Assurance__c:User__c&#45;&gt;User</title>
<path fill="none" stroke="gray" stroke-width="1.5" d="M207.51,-106.23C300.98,-106.23 423.7,-106.23 423.7,-106.23 423.7,-106.23 423.7,-48.51 423.7,-48.51"/>
<polygon fill="gray" stroke="gray" stroke-width="1.5" points="423.7,-38.51 428.2,-48.51 423.95,-41.68 423.95,-48.51 423.7,-48.51 423.45,-48.51 423.45,-41.68 419.2,-48.51 423.7,-38.51"/>
</g>
<!-- Timeclock__c -->
<g id="node5" class="node">
<title>Timeclock__c</title>
<polygon fill="#fff9c4" stroke="black" points="35.25,-255.85 35.25,-313.15 171.9,-313.15 171.9,-255.85 35.25,-255.85"/>
<text text-anchor="middle" x="103.58" y="-294.55" font-family="Arial, sans-serif" font-size="12.00">*Timeclock*</text>
<polyline fill="none" stroke="black" points="35.25,-284.5 171.9,-284.5"/>
<text text-anchor="middle" x="103.58" y="-265.9" font-family="Arial, sans-serif" font-size="12.00">Employee__c : Lookup</text>
</g>
<!-- Timeclock__c&#45;&gt;Employee__c -->
<g id="edge1" class="edge">
<title>Timeclock__c:Employee__c&#45;&gt;Employee__c</title>
<path fill="none" stroke="gray" stroke-width="1.5" d="M172.23,-284.5C172.23,-284.5 339.06,-284.5 339.06,-284.5"/>
<polygon fill="gray" stroke="gray" stroke-width="1.5" points="349.06,-284.5 339.06,-289 345.89,-284.75 339.06,-284.75 339.06,-284.5 339.06,-284.25 345.89,-284.25 339.06,-280 349.06,-284.5"/>
</g>
</g>
</svg>
